<svg width="24" height="18" viewBox="0 0 24 18" fill="none" xmlns="http://www.w3.org/2000/svg">
<path d="M11.6774 4.4836C12.0552 4.4836 12.3616 4.17726 12.3616 3.79939V0.684213C12.3616 0.306345 12.0552 0 11.6774 0C11.2995 0 10.9932 0.306345 10.9932 0.684213V3.79939C10.9932 4.17726 11.2995 4.4836 11.6774 4.4836Z" fill="black"/>
<path d="M22.6705 10.993H19.5553C19.1774 10.993 18.8711 11.2994 18.8711 11.6773C18.8711 12.0551 19.1774 12.3615 19.5553 12.3615H22.6705C23.0484 12.3615 23.3547 12.0551 23.3547 11.6773C23.3547 11.2994 23.0484 10.993 22.6705 10.993Z" fill="black"/>
<path d="M4.4836 11.6773C4.4836 11.2994 4.17726 10.993 3.79939 10.993H0.684213C0.306345 10.993 0 11.2994 0 11.6773C0 12.0551 0.306345 12.3615 0.684213 12.3615H3.79939C4.17726 12.3615 4.4836 12.0551 4.4836 11.6773Z" fill="black"/>
<path d="M18.0602 6.01695C18.2353 6.01695 18.4104 5.95013 18.544 5.81652L20.225 4.13555C20.4922 3.86839 20.4922 3.43514 20.225 3.16794C19.9579 2.90073 19.5247 2.90073 19.2574 3.16794L17.5764 4.84891C17.3092 5.11607 17.3092 5.54932 17.5764 5.81652C17.71 5.95013 17.8851 6.01695 18.0602 6.01695Z" fill="black"/>
<path d="M4.81116 5.81652C4.94476 5.95013 5.11988 6.01695 5.29494 6.01695C5.47001 6.01695 5.64517 5.95017 5.77873 5.81652C6.04594 5.54932 6.04594 5.11612 5.77873 4.84891L4.09771 3.16794C3.83055 2.90073 3.3973 2.90073 3.13009 3.16794C2.86289 3.43514 2.86289 3.86834 3.13009 4.13555L4.81116 5.81652Z" fill="black"/>
<path d="M20.1215 13.9601H17.1253C17.4266 13.2425 17.5838 12.4699 17.5838 11.6772C17.5838 8.42005 14.9339 5.77014 11.6768 5.77014C8.41968 5.77014 5.76976 8.42001 5.76976 11.6772C5.76976 12.4699 5.92695 13.2425 6.22823 13.9601H3.23206C2.8542 13.9601 2.54785 14.2665 2.54785 14.6443C2.54785 15.0222 2.8542 15.3286 3.23206 15.3286H7.37853H15.975H20.1215C20.4994 15.3286 20.8057 15.0222 20.8057 14.6443C20.8057 14.2665 20.4994 13.9601 20.1215 13.9601Z" fill="black"/>
<path d="M15.975 16.6315H7.37855C7.00068 16.6315 6.69434 16.9378 6.69434 17.3157C6.69434 17.6936 7.00068 17.9999 7.37855 17.9999H15.975C16.3529 17.9999 16.6592 17.6936 16.6592 17.3157C16.6592 16.9378 16.3529 16.6315 15.975 16.6315Z" fill="black"/>
</svg>
