<svg width="18" height="18" viewBox="0 0 18 18" fill="none" xmlns="http://www.w3.org/2000/svg">
<path d="M8.99388 3.90039C7.9849 3.9002 6.99852 4.19923 6.15948 4.75965C5.32045 5.32007 4.66645 6.11672 4.2802 7.04885C3.89394 7.98097 3.79278 9.0067 3.9895 9.99633C4.18623 10.9859 4.672 11.895 5.38539 12.6085C6.09877 13.3221 7.00773 13.808 7.99731 14.0049C8.9869 14.2019 10.0127 14.1009 10.9449 13.7148C11.8771 13.3288 12.6738 12.6749 13.2344 11.836C13.795 10.9971 14.0942 10.0108 14.0943 9.00179C14.0929 7.64942 13.5551 6.35283 12.5989 5.39646C11.6427 4.44009 10.3463 3.90206 8.99388 3.90039Z" fill="black"/>
<path d="M17.1022 8.10156H15.9031C15.6644 8.10156 15.4354 8.19641 15.2666 8.36523C15.0978 8.53405 15.0029 8.76303 15.0029 9.00178C15.0029 9.24053 15.0978 9.46951 15.2666 9.63833C15.4354 9.80715 15.6644 9.902 15.9031 9.902H17.1022C17.341 9.902 17.5699 9.80715 17.7388 9.63833C17.9076 9.46951 18.0024 9.24053 18.0024 9.00178C18.0024 8.76303 17.9076 8.53405 17.7388 8.36523C17.5699 8.19641 17.341 8.10156 17.1022 8.10156Z" fill="black"/>
<path d="M8.99338 14.9998C8.75479 15.0001 8.52609 15.0951 8.35744 15.2639C8.18879 15.4326 8.09396 15.6614 8.09375 15.9V17.1002C8.09375 17.3388 8.18852 17.5676 8.35722 17.7363C8.52592 17.905 8.75473 17.9997 8.9933 17.9997C9.23188 17.9997 9.46068 17.905 9.62938 17.7363C9.79808 17.5676 9.89286 17.3388 9.89286 17.1002V15.9C9.89268 15.6614 9.79788 15.4326 9.62926 15.2639C9.46063 15.0951 9.23195 15.0001 8.99338 14.9998Z" fill="black"/>
<path d="M2.99876 9.00178C2.99855 8.76319 2.90372 8.53442 2.73507 8.36566C2.56642 8.1969 2.33772 8.10192 2.09913 8.10156H0.900216C0.661464 8.10156 0.43249 8.19641 0.263667 8.36523C0.0948439 8.53405 0 8.76303 0 9.00178C0 9.24053 0.0948439 9.46951 0.263667 9.63833C0.43249 9.80715 0.661464 9.902 0.900216 9.902H2.09913C2.33772 9.90164 2.56642 9.80666 2.73507 9.63789C2.90372 9.46913 2.99855 9.24036 2.99876 9.00178Z" fill="black"/>
<path d="M8.99323 3C9.23182 2.99964 9.46052 2.90466 9.62917 2.7359C9.79782 2.56714 9.89265 2.33838 9.89286 2.09979V0.899553C9.89286 0.660977 9.79808 0.432172 9.62938 0.263473C9.46068 0.0947741 9.23188 0 8.9933 0C8.75473 0 8.52592 0.0947741 8.35722 0.263473C8.18852 0.432172 8.09375 0.660977 8.09375 0.899553V2.09979C8.09392 2.33837 8.18872 2.56712 8.35735 2.73589C8.52598 2.90465 8.75466 2.99963 8.99323 3Z" fill="black"/>
<path d="M14.5105 4.75752L15.3592 3.90883C15.443 3.82536 15.5095 3.72618 15.5549 3.61698C15.6004 3.50777 15.6238 3.39067 15.6239 3.27239C15.6241 3.15411 15.6008 3.03697 15.5556 2.92767C15.5104 2.81837 15.4441 2.71906 15.3605 2.63542C15.2768 2.55179 15.1775 2.48547 15.0682 2.44026C14.9589 2.39504 14.8418 2.37183 14.7235 2.37195C14.6052 2.37206 14.4881 2.39551 14.3789 2.44093C14.2697 2.48635 14.1705 2.55287 14.0871 2.63667L13.2384 3.48537C13.1546 3.56885 13.088 3.66803 13.0426 3.77723C12.9972 3.88644 12.9737 4.00354 12.9736 4.12182C12.9735 4.2401 12.9967 4.35724 13.0419 4.46654C13.0872 4.57584 13.1535 4.67515 13.2371 4.75878C13.3207 4.84242 13.4201 4.90874 13.5294 4.95395C13.6387 4.99916 13.7558 5.02237 13.8741 5.02225C13.9924 5.02213 14.1095 4.99869 14.2187 4.95326C14.3279 4.90784 14.427 4.84132 14.5105 4.75752Z" fill="black"/>
<path d="M14.5104 13.2462C14.4269 13.1624 14.3277 13.0959 14.2185 13.0505C14.1093 13.0051 13.9922 12.9817 13.874 12.9816C13.7557 12.9815 13.6386 13.0047 13.5293 13.0499C13.42 13.0951 13.3207 13.1614 13.2371 13.245C13.1535 13.3287 13.0872 13.428 13.042 13.5372C12.9967 13.6465 12.9735 13.7636 12.9736 13.8819C12.9737 14.0002 12.9972 14.1173 13.0426 14.2265C13.088 14.3357 13.1545 14.4348 13.2382 14.5183L14.0869 15.367C14.1704 15.4508 14.2696 15.5173 14.3788 15.5627C14.488 15.6081 14.6051 15.6315 14.7233 15.6316C14.8416 15.6317 14.9587 15.6085 15.068 15.5633C15.1773 15.5181 15.2766 15.4517 15.3602 15.3681C15.4438 15.2845 15.5101 15.1852 15.5553 15.0759C15.6006 14.9666 15.6238 14.8495 15.6237 14.7313C15.6236 14.613 15.6001 14.4959 15.5547 14.3867C15.5093 14.2775 15.4429 14.1783 15.3591 14.0948L14.5104 13.2462Z" fill="black"/>
<path d="M3.47682 13.246L2.62813 14.0947C2.5443 14.1782 2.47776 14.2774 2.43232 14.3866C2.38687 14.4958 2.36341 14.6129 2.36328 14.7312C2.36315 14.8495 2.38636 14.9667 2.43157 15.076C2.47678 15.1853 2.54311 15.2846 2.62675 15.3683C2.7104 15.4519 2.80972 15.5182 2.91904 15.5634C3.02835 15.6087 3.14551 15.6319 3.2638 15.6317C3.38209 15.6316 3.4992 15.6081 3.60842 15.5627C3.71763 15.5173 3.81681 15.4507 3.90028 15.3669L4.74898 14.5182C4.83275 14.4347 4.89924 14.3355 4.94464 14.2263C4.99004 14.1171 5.01347 14.0001 5.01357 13.8818C5.01367 13.7635 4.99046 13.6464 4.94525 13.5371C4.90004 13.4278 4.83372 13.3285 4.7501 13.2449C4.66647 13.1613 4.56718 13.095 4.45789 13.0498C4.34861 13.0046 4.23149 12.9813 4.11322 12.9814C3.99496 12.9815 3.87788 13.005 3.76867 13.0504C3.65947 13.0958 3.56029 13.1623 3.47682 13.246Z" fill="black"/>
<path d="M3.47723 4.75746C3.56074 4.8411 3.65991 4.90747 3.76908 4.95278C3.87825 4.99808 3.99527 5.02142 4.11347 5.02147C4.23167 5.02152 4.34871 4.99827 4.45792 4.95307C4.56713 4.90786 4.66636 4.84157 4.74993 4.75799C4.83351 4.67442 4.8998 4.57519 4.94501 4.46598C4.99021 4.35677 5.01346 4.23973 5.01341 4.12153C5.01336 4.00333 4.99001 3.88631 4.94471 3.77714C4.89941 3.66797 4.83304 3.5688 4.74939 3.48529L3.90069 2.63659C3.81724 2.55267 3.71806 2.48605 3.60882 2.44053C3.49958 2.39502 3.38243 2.3715 3.26409 2.37134C3.14575 2.37117 3.02853 2.39436 2.91917 2.43957C2.8098 2.48479 2.71043 2.55113 2.62675 2.63481C2.54307 2.7185 2.47673 2.81787 2.43151 2.92723C2.3863 3.0366 2.36312 3.15381 2.36328 3.27215C2.36345 3.3905 2.38696 3.50764 2.43248 3.61688C2.478 3.72612 2.54462 3.82531 2.62854 3.90875L3.47723 4.75746Z" fill="black"/>
</svg>
