<svg width="17" height="17" viewBox="0 0 17 17" fill="none" xmlns="http://www.w3.org/2000/svg">
<path d="M8.5 0C8.31808 0 8.13749 0.00571094 7.95839 0.0169668L0.881643 4.72603C0.317289 5.86311 0 7.14452 0 8.5C0 10.9861 1.06731 13.2229 2.76878 14.7773C2.76878 14.7773 5.53891 16.6826 8.5 16.6826C12.462 16.6826 16.5834 13.1944 16.5834 8.5C16.5834 2.93386 11.2875 0.4676 11.2875 0.4676C10.4143 0.164621 9.47634 0 8.5 0Z" fill="#008CDF"/>
<path d="M16.9165 7.30601L14.8559 7.0708C14.8559 11.7652 11.0503 15.5708 6.35589 15.5708C5.07381 15.5708 3.85865 15.2856 2.76855 14.7773C3.4285 15.3802 4.18387 15.8804 5.00937 16.2527L5.50987 16.2248L6.14455 16.6694C6.89245 16.8847 7.68265 17.0001 8.49981 17.0001C13.1942 17.0001 16.9998 13.1945 16.9998 8.50006C16.9998 8.09475 16.9714 7.69612 16.9165 7.30601Z" fill="#0069D0"/>
<path d="M12.0966 0.795897C11.834 0.673179 11.5641 0.563476 11.2877 0.467651L10.536 1.12879C10.3301 1.30483 10.2809 1.60851 10.4323 1.84372C10.5779 2.06983 10.8722 2.14873 11.12 2.0441L11.2721 1.97982C11.4589 1.90093 11.6778 1.92949 11.8293 2.06439C12.097 2.30285 12.0503 2.7243 11.75 2.90204L9.98459 3.94664C9.63977 4.15067 9.42077 4.52159 9.42794 4.92218C9.43538 5.33828 9.66853 5.67719 10.1371 5.72035C11.1067 5.80967 10.9671 4.78236 11.5366 4.78236H13.4898C13.7871 4.78236 14.0449 5.00466 14.0707 5.30086C14.1 5.63834 13.8348 5.92133 13.5034 5.92133H11.1613C10.2503 5.92133 9.45586 6.62334 9.4285 7.53394C9.40025 8.47618 10.1556 9.24888 11.0915 9.24888H11.3297C11.784 9.24888 12.1523 9.61717 12.1523 10.0715V12.9946C12.1523 13.0814 12.1675 13.167 12.1962 13.2468L12.8841 13.232L15.0259 9.74882L15.3012 7.75258L15.9995 6.74158C15.9995 6.74161 14.6497 1.98932 12.0966 0.795897Z" fill="#98DB7C"/>
<path d="M16.9171 7.30597C16.5113 4.41613 14.6461 1.99038 12.0967 0.795898C13.7909 2.34974 14.8565 4.59068 14.8565 7.07076C14.8565 9.50481 13.836 11.6972 12.1963 13.2468C12.2968 13.5339 12.5818 13.7333 12.9131 13.686C13.1243 13.6558 13.3037 13.5137 13.409 13.3281L15.4376 9.75091C15.6172 9.43426 15.6635 9.05916 15.5662 8.70834L15.409 8.14099C15.3573 7.95456 15.5097 7.77466 15.7021 7.79508L15.814 7.80694C16.1151 7.83888 16.4159 7.74382 16.644 7.54467L16.9171 7.30597Z" fill="#77CC7D"/>
<path d="M8.42084 0.751487L7.95858 0.0169678C4.84958 0.212003 2.19612 2.07646 0.881836 4.72603L1.41747 8.42632C1.47757 8.84166 1.7246 9.2066 2.08787 9.41674C2.29685 9.5376 2.38829 9.7915 2.30439 10.0178L2.12151 10.5112C1.95695 10.9551 2.09584 11.4545 2.46592 11.7498L2.95431 12.1394C3.12135 12.2727 3.25496 12.4432 3.34441 12.6373L4.61347 15.3911L5.35523 15.9146L5.87901 15.5575L5.68905 14.7636C5.5819 14.3158 5.63931 13.8444 5.85078 13.4354L6.67449 11.8425C6.90136 11.4037 6.69311 10.8653 6.23 10.6935L5.55328 10.4423C5.33833 10.3626 5.19572 10.1575 5.19572 9.92823V9.87541C5.19572 9.57253 4.95018 9.32702 4.64734 9.32702H3.47092C3.18261 9.32702 2.89942 9.25129 2.6496 9.10735L2.36263 8.94203C2.14465 8.81643 1.99637 8.59775 1.96037 8.34876L1.94204 8.22192C1.89589 7.90284 2.04046 7.58622 2.31176 7.412L2.4804 7.30373C2.6847 7.17257 2.95092 7.19133 3.1348 7.34984L3.28511 7.47944C3.46813 7.63722 3.75331 7.54372 3.80736 7.30817L3.96767 6.60968C4.0531 6.23754 4.3259 5.93659 4.68794 5.81516L5.87104 5.41839C6.20891 5.30506 6.35066 4.90467 6.15934 4.60405L5.62152 3.75893C5.47373 3.5267 5.17669 3.44001 4.92717 3.55629L4.48301 3.76331C4.25328 3.87042 3.96704 3.8245 3.81198 3.62399C3.61193 3.36534 3.69231 2.99373 3.97454 2.8388L5.0908 2.22594C5.46108 2.02264 5.92516 2.13284 6.16449 2.48091L6.26821 2.63175C6.42158 2.85497 6.67508 2.98828 6.94592 2.98828H7.44822C7.78121 2.98828 8.08134 2.78754 8.20847 2.47981L8.5074 1.75628C8.64337 1.42714 8.61109 1.05251 8.42084 0.751487Z" fill="#98DB7C"/>
<path d="M5.00959 16.2526C5.37509 16.4175 5.75391 16.5568 6.14474 16.6693L5.87879 15.5574C5.44675 15.5334 5.02563 15.4775 4.61328 15.3911L5.00959 16.2526Z" fill="#77CC7D"/>
</svg>
