<svg width="134" height="34" viewBox="0 0 134 34" fill="none" xmlns="http://www.w3.org/2000/svg">
<g clip-path="url(#clip0_305_37)">
<path d="M117 0H17C7.61116 0 0 7.61116 0 17C0 26.3888 7.61116 34 17 34H117C126.389 34 134 26.3888 134 17C134 7.61116 126.389 0 117 0Z" fill="white"/>
<path d="M33.2089 15.204L24.7821 15.2036C24.41 15.2036 24.1084 15.5051 24.1084 15.8772V18.5692C24.1084 18.9412 24.41 19.2429 24.7821 19.2429H29.5275C29.0079 20.5915 28.038 21.7208 26.8007 22.4384L28.8241 25.9412C32.07 24.064 33.989 20.7702 33.989 17.0831C33.989 16.5581 33.9503 16.1828 33.8729 15.7602C33.814 15.4391 33.5353 15.204 33.2089 15.204Z" fill="#167EE6"/>
<path d="M23.6592 23.2877C21.3369 23.2877 19.3095 22.0188 18.2207 20.1412L14.718 22.1601C16.5005 25.2494 19.8396 27.3297 23.6592 27.3297C25.533 27.3297 27.301 26.8252 28.8241 25.946V25.9412L26.8006 22.4384C25.8751 22.9752 24.804 23.2877 23.6592 23.2877Z" fill="#12B347"/>
<path d="M28.824 25.946V25.9412L26.8006 22.4384C25.875 22.9752 24.804 23.2877 23.6592 23.2877V27.3297C25.5329 27.3297 27.301 26.8252 28.824 25.946Z" fill="#0F993E"/>
<path d="M17.3716 17C17.3716 15.8553 17.684 14.7844 18.2207 13.8589L14.7181 11.84C13.8341 13.3582 13.3296 15.1215 13.3296 17C13.3296 18.8786 13.8341 20.6418 14.7181 22.1601L18.2207 20.1412C17.684 19.2156 17.3716 18.1447 17.3716 17Z" fill="#FFD500"/>
<path d="M23.6592 10.7123C25.1736 10.7123 26.5646 11.2505 27.6512 12.1455C27.9192 12.3663 28.3088 12.3504 28.5543 12.1049L30.4617 10.1975C30.7403 9.91894 30.7204 9.46294 30.4228 9.20478C28.6024 7.6255 26.2338 6.67029 23.6592 6.67029C19.8396 6.67029 16.5005 8.75063 14.718 11.8399L18.2207 13.8588C19.3095 11.9812 21.3369 10.7123 23.6592 10.7123Z" fill="#FF4B26"/>
<path d="M27.6511 12.1455C27.9192 12.3663 28.3088 12.3504 28.5543 12.1049L30.4616 10.1975C30.7402 9.91894 30.7203 9.46294 30.4228 9.20478C28.6024 7.62546 26.2338 6.67029 23.6592 6.67029V10.7123C25.1735 10.7123 26.5646 11.2505 27.6511 12.1455Z" fill="#D93F21"/>
<path d="M49.4977 22.7181L47.101 21.4556L44.6945 22.7181C44.4855 22.8275 44.2502 22.8763 44.015 22.8591C43.7798 22.8419 43.554 22.7593 43.3632 22.6207C43.1724 22.4821 43.0241 22.2929 42.935 22.0746C42.846 21.8562 42.8197 21.6173 42.8591 21.3847L43.3186 18.71L41.3707 16.8153C41.2018 16.6505 41.0823 16.4417 41.0258 16.2125C40.9693 15.9834 40.978 15.743 41.051 15.5185C41.1239 15.2941 41.2582 15.0945 41.4386 14.9424C41.619 14.7902 41.8384 14.6916 42.072 14.6576L44.7573 14.2671L45.9615 11.8385C46.0659 11.6268 46.2276 11.4485 46.4281 11.3238C46.6286 11.1992 46.86 11.1331 47.0961 11.1331C47.3322 11.1331 47.5636 11.1992 47.7641 11.3238C47.9646 11.4485 48.1262 11.6268 48.2307 11.8385L49.4313 14.268L52.1167 14.6585C52.3502 14.6925 52.5696 14.7911 52.75 14.9433C52.9305 15.0954 53.0647 15.295 53.1377 15.5194C53.2106 15.7439 53.2193 15.9843 53.1628 16.2134C53.1063 16.4426 52.9868 16.6513 52.8179 16.8161L50.8754 18.7109L51.334 21.3856C51.3649 21.5674 51.3558 21.7537 51.3073 21.9317C51.2588 22.1096 51.1721 22.2748 51.0533 22.4158C50.9345 22.5568 50.7863 22.6702 50.6192 22.7481C50.4521 22.826 50.27 22.8665 50.0856 22.8669C49.8804 22.8663 49.6785 22.8152 49.4977 22.7181Z" fill="#FF9E00"/>
<path d="M66.3649 22.7181L63.9681 21.4556L61.5617 22.7181C61.3527 22.8275 61.1174 22.8763 60.8822 22.8591C60.6469 22.8419 60.4212 22.7593 60.2304 22.6207C60.0396 22.4821 59.8913 22.2929 59.8022 22.0746C59.7131 21.8562 59.6868 21.6173 59.7263 21.3847L60.1858 18.71L58.2379 16.8153C58.069 16.6505 57.9495 16.4417 57.893 16.2125C57.8365 15.9834 57.8452 15.743 57.9182 15.5185C57.9911 15.2941 58.1254 15.0945 58.3058 14.9424C58.4862 14.7902 58.7056 14.6916 58.9392 14.6576L61.6245 14.2671L62.8287 11.8385C62.9331 11.6268 63.0948 11.4485 63.2953 11.3238C63.4958 11.1992 63.7272 11.1331 63.9633 11.1331C64.1994 11.1331 64.4308 11.1992 64.6313 11.3238C64.8318 11.4485 64.9934 11.6268 65.0979 11.8385L66.2985 14.268L68.9839 14.6585C69.2174 14.6925 69.4368 14.7911 69.6172 14.9433C69.7976 15.0954 69.9319 15.295 70.0049 15.5194C70.0778 15.7439 70.0865 15.9843 70.03 16.2134C69.9735 16.4426 69.854 16.6513 69.6851 16.8161L67.7425 18.7109L68.2012 21.3856C68.2321 21.5674 68.2229 21.7537 68.1745 21.9317C68.126 22.1096 68.0393 22.2748 67.9205 22.4158C67.8017 22.5568 67.6535 22.6702 67.4864 22.7481C67.3193 22.826 67.1372 22.8665 66.9528 22.8669C66.7476 22.8663 66.5457 22.8152 66.3649 22.7181Z" fill="#FF9E00"/>
<path d="M83.2321 22.7181L80.8353 21.4556L78.4289 22.7181C78.2199 22.8275 77.9846 22.8763 77.7493 22.8591C77.5141 22.8419 77.2884 22.7593 77.0976 22.6207C76.9068 22.4821 76.7585 22.2929 76.6694 22.0746C76.5803 21.8562 76.554 21.6173 76.5935 21.3847L77.053 18.71L75.1051 16.8153C74.9362 16.6505 74.8167 16.4417 74.7602 16.2125C74.7037 15.9834 74.7124 15.743 74.7853 15.5185C74.8583 15.2941 74.9926 15.0945 75.173 14.9424C75.3534 14.7902 75.5728 14.6916 75.8063 14.6576L78.4917 14.2671L79.6958 11.8385C79.8003 11.6268 79.9619 11.4485 80.1625 11.3238C80.363 11.1992 80.5944 11.1331 80.8305 11.1331C81.0666 11.1331 81.298 11.1992 81.4985 11.3238C81.699 11.4485 81.8606 11.6268 81.9651 11.8385L83.1657 14.268L85.851 14.6585C86.0846 14.6925 86.304 14.7911 86.4844 14.9433C86.6648 15.0954 86.7991 15.295 86.8721 15.5194C86.945 15.7439 86.9537 15.9843 86.8972 16.2134C86.8407 16.4426 86.7212 16.6513 86.5523 16.8161L84.6097 18.7109L85.0684 21.3856C85.0992 21.5674 85.0901 21.7537 85.0417 21.9317C84.9932 22.1096 84.9065 22.2748 84.7877 22.4158C84.6689 22.5568 84.5207 22.6702 84.3536 22.7481C84.1865 22.826 84.0044 22.8665 83.82 22.8669C83.6148 22.8663 83.4129 22.8152 83.2321 22.7181Z" fill="#FF9E00"/>
<path d="M100.101 22.7181L97.7045 21.4556L95.298 22.7181C95.089 22.8275 94.8537 22.8763 94.6185 22.8591C94.3833 22.8419 94.1575 22.7593 93.9667 22.6207C93.7759 22.4821 93.6276 22.2929 93.5385 22.0746C93.4495 21.8562 93.4232 21.6173 93.4626 21.3847L93.9221 18.71L91.9743 16.8153C91.8053 16.6505 91.6858 16.4417 91.6293 16.2125C91.5728 15.9834 91.5815 15.743 91.6545 15.5185C91.7274 15.2941 91.8617 15.0945 92.0421 14.9424C92.2226 14.7902 92.4419 14.6916 92.6755 14.6576L95.3609 14.2671L96.565 11.8385C96.6695 11.6268 96.8311 11.4485 97.0316 11.3238C97.2321 11.1992 97.4635 11.1331 97.6996 11.1331C97.9357 11.1331 98.1671 11.1992 98.3676 11.3238C98.5681 11.4485 98.7298 11.6268 98.8342 11.8385L100.035 14.268L102.72 14.6585C102.954 14.6925 103.173 14.7911 103.354 14.9433C103.534 15.0954 103.668 15.295 103.741 15.5194C103.814 15.7439 103.823 15.9843 103.766 16.2134C103.71 16.4426 103.59 16.6513 103.421 16.8161L101.479 18.7109L101.938 21.3856C101.968 21.5674 101.959 21.7537 101.911 21.9317C101.862 22.1096 101.776 22.2748 101.657 22.4158C101.538 22.5568 101.39 22.6702 101.223 22.7481C101.056 22.826 100.874 22.8665 100.689 22.8669C100.484 22.8663 100.282 22.8152 100.101 22.7181Z" fill="#FF9E00"/>
<path d="M116.968 22.7181L114.572 21.4556L112.165 22.7181C111.956 22.8275 111.721 22.8763 111.486 22.8591C111.25 22.8419 111.025 22.7593 110.834 22.6207C110.643 22.4821 110.495 22.2929 110.406 22.0746C110.317 21.8562 110.29 21.6173 110.33 21.3847L110.789 18.71L108.841 16.8153C108.673 16.6505 108.553 16.4417 108.497 16.2125C108.44 15.9834 108.449 15.743 108.522 15.5185C108.595 15.2941 108.729 15.0945 108.909 14.9424C109.09 14.7902 109.309 14.6916 109.543 14.6576L112.228 14.2671L113.432 11.8385C113.537 11.6268 113.698 11.4485 113.899 11.3238C114.099 11.1992 114.331 11.1331 114.567 11.1331C114.803 11.1331 115.034 11.1992 115.235 11.3238C115.435 11.4485 115.597 11.6268 115.701 11.8385L116.902 14.268L119.587 14.6585C119.821 14.6925 120.04 14.7911 120.221 14.9433C120.401 15.0954 120.535 15.295 120.608 15.5194C120.681 15.7439 120.69 15.9843 120.634 16.2134C120.577 16.4426 120.458 16.6513 120.289 16.8161L118.346 18.7109L118.805 21.3856C118.836 21.5674 118.826 21.7537 118.778 21.9317C118.73 22.1096 118.643 22.2748 118.524 22.4158C118.405 22.5568 118.257 22.6702 118.09 22.7481C117.923 22.826 117.741 22.8665 117.556 22.8669C117.351 22.8663 117.149 22.8152 116.968 22.7181Z" fill="#FF9E00"/>
</g>
<defs>
<clipPath id="clip0_305_37">
<rect width="134" height="34" fill="white"/>
</clipPath>
</defs>
</svg>
